<svg width="271" height="271" viewBox="0 0 271 271" fill="none" xmlns="http://www.w3.org/2000/svg">
<circle cx="135.5" cy="135.5" r="135.5" fill="#473FD1"/>
<path fill-rule="evenodd" clip-rule="evenodd" d="M163.173 142.402C154.81 145.784 145.782 147.87 136.34 148.41C134.712 148.503 133.071 148.551 131.419 148.551C129.768 148.551 128.127 148.503 126.498 148.41C117.054 147.87 108.025 145.783 99.6596 142.4C82.105 135.299 67.4773 122.489 58.086 106.275C72.724 81.0031 100.083 64 131.419 64C162.755 64 190.115 81.0031 204.753 106.275C195.36 122.491 180.73 135.302 163.173 142.402Z" fill="white"/>
<path d="M99.6584 148.981C97.636 148.163 95.6525 147.269 93.7114 146.303C87.4029 150.741 82.0699 156.269 78.0543 162.576C84.8799 173.295 95.5113 181.764 108.27 186.458C114.35 188.695 120.912 190.075 127.777 190.432H134.929C141.792 190.075 153.854 196.865 136.339 214C149.1 209.306 177.825 173.296 184.652 162.576C180.648 156.287 175.333 150.773 169.049 146.341C167.13 147.293 165.17 148.175 163.172 148.983C154.809 152.365 145.781 154.451 136.339 154.991C134.711 155.085 133.07 155.132 131.418 155.132C129.766 155.132 128.126 155.085 126.497 154.991C117.053 154.451 108.023 152.364 99.6584 148.981Z" fill="white"/>
<rect x="96.0577" y="95.4608" width="70.8775" height="25.2809" rx="12.6404" fill="#162550"/>
<ellipse cx="151.042" cy="107.961" rx="4.64079" ry="4.63483" fill="#04FED1"/>
<ellipse cx="131.353" cy="170.32" rx="4.64079" ry="4.63483" fill="#162550"/>
<ellipse cx="112.793" cy="107.961" rx="4.64079" ry="4.63483" fill="#04FED1"/>
<ellipse cx="112.793" cy="170.32" rx="4.64079" ry="4.63483" fill="#162550"/>
<ellipse cx="149.919" cy="170.32" rx="4.64079" ry="4.63483" fill="#162550"/>
</svg>
